<svg xmlns="http://www.w3.org/2000/svg" fill="none" viewBox="0 0 243 133">
  <path d="M6.396 89.635c-.65 0-1.269-.114-1.855-.342C1.514 88.088.033 85.126.098 80.406c.358-6.152 3.239-12.19 8.642-18.115 5.469-5.794 12.728-10.335 21.778-13.623 2.31-6.445 4.199-12.077 5.664-16.895 1.497-4.817 2.295-7.812 2.392-8.984-.618-.195-2.197.423-4.736 1.855-2.735 1.758-4.769 3.712-6.104 5.86-1.595 2.67-1.253 4.834 1.026 6.494a.892.892 0 01.39.635c.033.26-.032.504-.195.732a.892.892 0 01-.635.39 1.008 1.008 0 01-.732-.195c-2.832-2.148-3.516-4.85-2.05-8.105 1.431-2.67 3.596-4.98 6.493-6.933 2.93-1.986 5.29-2.849 7.08-2.588.944.26 1.416.895 1.416 1.904-.097 1.27-.879 4.264-2.343 8.984-1.433 4.72-3.19 10.059-5.274 16.016a79.14 79.14 0 013.955-1.172c.293-.065.537-.032.733.098.227.13.39.325.488.586a.957.957 0 01-.098.732.897.897 0 01-.586.44 93.67 93.67 0 00-5.322 1.66c-1.758 4.915-3.922 10.449-6.494 16.601-2.54 6.12-4.948 10.84-7.227 14.16-4.297 5.697-8.284 8.594-11.963 8.692zM29.64 51.06c-8.073 3.158-14.567 7.357-19.483 12.598-5.078 5.534-7.78 11.133-8.105 16.797-.065 3.776.976 6.104 3.125 6.983 3.19.878 7.064-1.677 11.62-7.666 3.191-4.525 7.472-14.096 12.843-28.712zm7.763 17.53a2.49 2.49 0 01-.879-.147c-.26-.097-.537-.341-.83-.732-.293-.423-.44-1.074-.44-1.953.131-2.051 1.01-4.378 2.638-6.983 1.595-2.636 3.499-4.41 5.712-5.322.75-.293 1.612-.358 2.588-.195.977.13 1.986.748 3.028 1.855a66.34 66.34 0 001.562-2.1c.39-.553.602-.83.635-.83.13-.227.31-.358.537-.39a.957.957 0 01.732.098.89.89 0 01.44.537.995.995 0 01-.049.683c-1.465 3.549-2.246 6.218-2.344 8.008-.065 1.79.245 2.865.928 3.223.977.553 2.588.146 4.834-1.22 2.279-1.4 4.753-3.712 7.422-6.934a.892.892 0 01.635-.391c.26-.033.504.049.732.244a.95.95 0 01.342.635 1.01 1.01 0 01-.195.732c-4.916 5.892-9.196 8.936-12.842 9.131-.749 0-1.4-.179-1.953-.537-.749-.358-1.302-1.14-1.66-2.344-.358-1.204-.26-3.01.293-5.42a75.394 75.394 0 01-5.176 5.957c-2.962 2.963-5.192 4.427-6.69 4.395zm-.049-1.953h.196c.098 0 .276-.05.537-.147.26-.13.602-.325 1.025-.586.391-.26.88-.635 1.465-1.123a50.75 50.75 0 002.1-2.002 68.056 68.056 0 005.322-6.103l-.195-.196c-.944-1.106-1.986-1.546-3.125-1.318-1.465.39-2.865 1.481-4.2 3.272-1.334 1.757-2.31 3.613-2.93 5.566-.26.912-.373 1.579-.341 2.002.033.39.081.602.146.635zM65.43 52.135l.146-.293a1.26 1.26 0 01.489-.44.952.952 0 01.732 0c.26.098.44.26.537.489.098.162.13.341.098.537v.097c-.033.033-.05.066-.05.098l-2.392 6.201c1.042-1.595 1.904-2.8 2.588-3.613.684-.846 1.237-1.416 1.66-1.709.456-.293.847-.423 1.172-.39.553-.033.993.195 1.319.683l.048.098c.88 1.432 1.66 2.474 2.344 3.125.716.65 1.595.846 2.637.585 1.302-.39 2.197-.7 2.685-.927l.782-.342c.586-.26.992-.114 1.22.44.26.52.245.895-.048 1.123-.066.065-.407.244-1.026.537-.586.26-1.611.602-3.076 1.025-.52.163-1.01.244-1.465.244-1.27-.065-2.344-.537-3.223-1.416a17.606 17.606 0 01-2.294-3.125c-.26.13-.83.765-1.71 1.904-.878 1.14-2.197 3.174-3.955 6.104a161.412 161.412 0 00-2.978 5.42c-.846 1.562-1.286 2.392-1.318 2.49-.228.358-.521.537-.88.537a.867.867 0 01-.39-.098c-.26-.097-.44-.26-.537-.488a.952.952 0 010-.732l6.885-18.164zm17.431 16.26c-2.702-.033-4.33-1.335-4.883-3.907-.358-2.116.082-4.394 1.319-6.836 1.335-2.539 3.01-4.15 5.03-4.834.976-.293 1.773-.26 2.392.098.618.326 1.025.798 1.22 1.416.26.846.18 1.725-.244 2.637-.39.911-1.09 1.562-2.1 1.953a4.504 4.504 0 01-1.757.146 12.57 12.57 0 01-1.66-.293 15.258 15.258 0 01-1.075-.39c-1.074 2.05-1.48 3.971-1.22 5.762.325 1.66 1.432 2.425 3.32 2.294 4.362-.26 8.805-3.613 13.33-10.058.195-.228.407-.358.635-.39a.852.852 0 01.732.146.891.891 0 01.391.634.852.852 0 01-.147.733c-1.562 2.376-3.58 4.704-6.054 6.982-2.474 2.246-5.388 3.549-8.74 3.906h-.489zm-.634-11.72c.455.164.944.294 1.464.391.521.066.944.066 1.27 0 .488-.195.83-.504 1.025-.927.196-.456.228-.847.098-1.172 0-.065-.033-.13-.098-.195-.065-.098-.179-.163-.342-.196-.162-.032-.406 0-.732.098-1.009.358-1.904 1.025-2.685 2.002zm20.556 25.147c-.195 0-.423-.065-.683-.195-.717-.326-1.075-1.579-1.075-3.76 0-1.66.407-4.248 1.221-7.764.846-3.515 1.953-7.21 3.32-11.083-4.394 5.696-7.65 9.44-9.765 11.23-.847.651-1.546.96-2.1.928-.553-.033-.96-.18-1.22-.44-.814-.716-1.172-1.855-1.075-3.418.098-1.562.505-3.092 1.221-4.59.456-1.106 1.4-2.734 2.832-4.882 1.4-2.149 3.076-3.76 5.029-4.834 1.335-.554 2.507-.554 3.516 0 1.042.52 1.79 1.155 2.246 1.904.749-.977 1.497-1.986 2.246-3.027a315.762 315.762 0 016.983-14.356c2.604-5.013 4.573-8.463 5.908-10.351.195-.26.472-.586.83-.977a3.85 3.85 0 011.221-.977c.455-.227.927-.227 1.416 0 .488.293.764.75.83 1.368a4.916 4.916 0 01-.147 1.806 14.16 14.16 0 01-.342 1.319c-.423 1.237-1.465 3.222-3.125 5.957-1.627 2.702-4.476 6.9-8.545 12.597a452.298 452.298 0 01-3.32 4.59 170.242 170.242 0 00-1.611 3.662 103.883 103.883 0 00-4.053 12.403c-1.042 4.134-1.562 7.112-1.562 8.935.032 1.172.097 1.856.195 2.051.195.065.358.212.488.44.13.227.163.471.098.732-.065.228-.228.423-.489.586a1.71 1.71 0 01-.488.146zm-.586-27.295a2.966 2.966 0 00-.879.245c-2.343 1.236-4.655 4.166-6.933 8.788-.619 1.4-.944 2.653-.977 3.76-.065 1.075.033 1.71.293 1.905l.244-.098c.13-.065.326-.195.586-.39 2.214-1.856 5.729-5.941 10.547-12.256a.97.97 0 01-.293-.342c-.032-.033-.163-.18-.39-.44a4.694 4.694 0 00-.928-.781c-.358-.26-.781-.39-1.27-.39zm21.533-27.1c-.195.196-.455.505-.781.928-.781 1.075-1.888 2.93-3.32 5.567a296.818 296.818 0 00-4.59 8.838c4.753-6.836 7.52-11.393 8.301-13.672.228-.684.358-1.237.39-1.66zm51.807 30.323c-.391.553-1.204 1.709-2.441 3.467-1.726 2.474-3.646 5.713-5.762 9.717-2.116 3.97-3.857 8.3-5.225 12.988-.651 2.376-1.106 4.313-1.367 5.81-.26 1.53-.407 2.719-.439 3.565 0 .846.049 1.432.146 1.758.098.358.163.57.196.634.26-.065.488-.048.683.05.195.13.342.308.44.536.065.26.048.505-.049.733a.88.88 0 01-.537.537 1.435 1.435 0 01-.537.098c-.424 0-.847-.163-1.27-.489-.358-.293-.651-.862-.879-1.709-.195-.813-.195-2.164 0-4.052.228-1.888.798-4.541 1.709-7.96 1.79-6.022 4.037-11.36 6.738-16.015a112.89 112.89 0 01-4.834 4.932c-10.188 9.96-17.675 14.6-22.461 13.916-4.687-.814-7.161-4.411-7.421-10.791-.066-4.33.846-9.327 2.734-14.99 1.888-5.665 4.525-11.313 7.91-16.944 7.878-12.598 16.178-19.938 24.902-22.021 4.2-.814 7.129.553 8.789 4.101 1.107 2.702 1.14 5.827.098 9.375-1.042 3.516-3.206 6.51-6.494 8.984a1.008 1.008 0 01-.732.196 1.084 1.084 0 01-.635-.44 1.005 1.005 0 01-.195-.732c.065-.26.211-.472.439-.635 2.865-2.148 4.769-4.769 5.713-7.861.944-3.125.944-5.827 0-8.106-.358-.976-1.058-1.806-2.1-2.49-1.009-.683-2.506-.846-4.492-.488-8.171 1.953-16.048 9-23.633 21.142-3.288 5.47-5.859 10.954-7.715 16.456-1.823 5.468-2.701 10.27-2.636 14.404.162 5.37 2.083 8.333 5.761 8.886 2.149.228 4.786-.667 7.911-2.685 3.157-2.018 6.445-4.606 9.863-7.764a177.258 177.258 0 009.57-9.619c2.279-2.474 4.183-4.639 5.713-6.494h-2.051c-3.255.033-6.12.081-8.593.147-2.442.032-3.907.08-4.395.146a.545.545 0 01-.244.049 1.05 1.05 0 01-.586-.195 1.025 1.025 0 01-.342-.538.958.958 0 01.098-.732c.163-.228.374-.374.635-.44.585-.13 2.327-.211 5.224-.244 2.93-.065 6.087-.097 9.473-.097a873.58 873.58 0 017.568-.05.94.94 0 01.684.294.938.938 0 01.293.683.94.94 0 01-.293.684.938.938 0 01-.684.293h-4.248zm7.813 13.184c-1.042.032-1.791-.212-2.246-.733-.847-.911-1.221-2.213-1.124-3.906a14.349 14.349 0 011.221-4.98c.684-1.498 1.465-2.67 2.344-3.516.879-.88 1.644-1.498 2.295-1.856.651-.358 1.025-.537 1.123-.537a.956.956 0 01.732.098.895.895 0 01.489.537.828.828 0 01-.049.732.893.893 0 01-.537.489c-.065 0-.358.146-.879.44-.521.292-1.123.797-1.807 1.513-.716.683-1.351 1.644-1.904 2.88-.651 1.498-1.009 2.882-1.074 4.151-.066 1.27.114 2.116.537 2.54.228.195.521.26.879.195.358-.066.699-.18 1.025-.342 2.311-1.237 3.939-3.32 4.883-6.25.781-2.767.635-5.209-.44-7.325l-.146-.292c-.13-.26-.163-.505-.098-.733.098-.26.261-.456.488-.586a.732.732 0 01.684-.049c.261.065.472.212.635.44.032.065.081.146.146.244.163.325.489.781.977 1.367.521.553 1.367 1.042 2.539 1.465 1.172.39 2.425.244 3.76-.44.26-.162.504-.211.732-.146a.891.891 0 01.635.39c.163.261.212.521.146.782-.065.228-.211.423-.439.586-1.823 1.009-3.385 1.302-4.688.879-1.302-.423-2.148-.749-2.539-.977.163 1.595 0 3.24-.488 4.932-1.107 3.483-3.076 5.957-5.908 7.422-.749.358-1.384.553-1.904.586zm17.089-2.54c-2.701-.032-4.329-1.334-4.882-3.906-.358-2.116.081-4.394 1.318-6.836 1.335-2.539 3.011-4.15 5.029-4.834.977-.293 1.774-.26 2.393.098.618.326 1.025.798 1.221 1.416.26.846.179 1.725-.245 2.637-.39.911-1.09 1.562-2.099 1.953a4.505 4.505 0 01-1.758.146 12.568 12.568 0 01-1.66-.293 15.301 15.301 0 01-1.074-.39c-1.075 2.05-1.481 3.971-1.221 5.762.325 1.66 1.432 2.425 3.32 2.294 4.362-.26 8.806-3.613 13.33-10.058.196-.228.407-.358.635-.39a.853.853 0 01.733.146.892.892 0 01.39.634.855.855 0 01-.146.733c-1.563 2.376-3.581 4.704-6.055 6.982-2.474 2.246-5.387 3.549-8.74 3.906h-.489zm-.634-11.718a9.6 9.6 0 001.465.39c.52.066.944.066 1.269 0 .488-.195.83-.504 1.025-.927.196-.456.228-.847.098-1.172 0-.065-.032-.13-.098-.195-.065-.098-.179-.163-.341-.196-.163-.032-.407 0-.733.098-1.009.358-1.904 1.025-2.685 2.002zm3.955 37.646a.95.95 0 01-.635-.341c-.195-.163-.293-.391-.293-.684.195-4.07 1.563-9.847 4.102-17.334 2.506-7.487 5.468-15.365 8.886-23.633 3.451-8.268 6.625-15.609 9.522-22.021.13-.228.309-.391.537-.489a.95.95 0 01.732 0c.261.13.44.326.537.586.098.228.082.472-.048.733-2.344 5.208-5.241 11.914-8.692 20.117-3.418 8.203-6.478 16.227-9.179 24.072-2.735 7.845-4.216 13.851-4.444 18.018 0 .293-.097.52-.293.683a.936.936 0 01-.683.293h-.049zm37.549-48.681h-.049l-39.405-1.123c-.293 0-.52-.098-.683-.293a.938.938 0 01-.293-.684c.032-.293.146-.52.342-.684.162-.195.39-.292.683-.292l39.405 1.123c.293.032.52.146.683.341a.934.934 0 01.293.684 1.14 1.14 0 01-.342.684.857.857 0 01-.634.244zm-22.803 37.353c-.619 0-1.058-.13-1.318-.39-1.628-1.303-1.579-3.63.146-6.983 1.921-3.223 4.801-6.51 8.643-9.863-.261-.977-.603-1.79-1.026-2.442-.423-.683-.814-1.204-1.172-1.562-.325-.358-.504-.537-.537-.537-.26-.163-.39-.407-.39-.733a.797.797 0 01.293-.732c1.595-1.53 2.978-2.962 4.15-4.297 1.172-1.367 1.937-2.392 2.295-3.076-.456.032-1.644.83-3.565 2.393a40.618 40.618 0 00-2.246 1.953c-.586.585-.895.911-.927.976a.94.94 0 01-.684.293.94.94 0 01-.684-.293.938.938 0 01-.293-.683.787.787 0 01.245-.684c.065-.065.439-.423 1.123-1.074A66.654 66.654 0 01225 53.063c2.865-2.41 4.85-3.24 5.957-2.49.423.26.667.634.732 1.122.098.39-.081 1.01-.537 1.856-.455.846-1.481 2.164-3.076 3.955-1.139 1.237-2.083 2.213-2.832 2.93.586.586 1.188 1.464 1.807 2.636.195.39.374.814.537 1.27 3.711-3.093 7.015-5.664 9.912-7.715.228-.13.472-.18.732-.147a.891.891 0 01.635.391.852.852 0 01.147.732.893.893 0 01-.391.635c-2.734 1.888-6.25 4.639-10.547 8.252.293 1.79.016 3.923-.83 6.397-.944 2.474-2.116 4.606-3.516 6.396-1.171 1.465-2.197 2.458-3.076 2.979-.879.488-1.595.732-2.148.732zm7.715-14.795c-3.19 2.897-5.583 5.68-7.178 8.35-.684 1.27-1.042 2.295-1.074 3.076-.033.749.065 1.204.293 1.367.195.13.634.016 1.318-.342.684-.39 1.563-1.253 2.637-2.588 1.269-1.627 2.327-3.58 3.174-5.859.553-1.497.83-2.832.83-4.004z" fill="#000"/>
  <path d="M1.023 129l1.81-10.909h5.86l-.064.341H3.111l-.81 4.943h5.007l-.064.341H2.237L1.364 129h-.341zm10.816.17c-.647 0-1.197-.186-1.652-.559-.45-.373-.774-.882-.97-1.529-.19-.646-.22-1.377-.084-2.194a5.801 5.801 0 01.799-2.142c.4-.635.884-1.136 1.448-1.502.569-.369 1.169-.554 1.8-.554.654 0 1.207.189 1.658.565.454.376.777.888.969 1.534.195.646.229 1.374.101 2.184a5.797 5.797 0 01-.804 2.147 4.875 4.875 0 01-1.454 1.502 3.287 3.287 0 01-1.811.548zm0-.34c.59 0 1.145-.171 1.667-.512.522-.344.966-.813 1.332-1.406a5.514 5.514 0 00.73-2.024c.12-.732.097-1.389-.07-1.971-.167-.582-.45-1.042-.847-1.38-.398-.337-.88-.506-1.449-.506-.582 0-1.134.174-1.656.522-.522.345-.968.815-1.337 1.412a5.38 5.38 0 00-.735 2.008c-.128.732-.109 1.389.058 1.971.17.582.455 1.042.852 1.38.402.337.886.506 1.455.506zm11.52-2.515l.916-5.497h.341L23.252 129h-.34l.213-1.3h-.043a2.764 2.764 0 01-1.113 1.023 3.304 3.304 0 01-1.572.384c-.547 0-1.01-.119-1.39-.357a2.014 2.014 0 01-.82-.986c-.167-.419-.204-.902-.112-1.449l.916-5.497h.34l-.915 5.497c-.117.725.012 1.314.389 1.769.38.454.932.682 1.656.682a2.88 2.88 0 001.337-.315 2.892 2.892 0 001.028-.868c.277-.369.455-.792.533-1.268zm4.05-2.812L26.495 129h-.341l1.363-8.182h.341l-.213 1.3h.043a2.767 2.767 0 011.108-1.023 3.334 3.334 0 011.576-.383c.547 0 1.01.119 1.39.357.38.237.654.566.821.985.167.419.204.902.112 1.449L31.778 129h-.341l.916-5.497c.117-.725-.007-1.314-.373-1.769-.362-.454-.905-.681-1.63-.681-.483 0-.934.104-1.353.314a3.025 3.025 0 00-1.05.868c-.28.369-.459.792-.537 1.268zm9.911 5.667c-.646 0-1.175-.184-1.587-.554-.412-.372-.694-.878-.847-1.518-.15-.639-.158-1.361-.027-2.168a6.476 6.476 0 01.751-2.162c.366-.639.815-1.145 1.348-1.518a3.014 3.014 0 011.758-.56c.437 0 .822.091 1.156.272.337.178.612.433.825.767.217.33.359.723.426 1.177h.043l.8-4.815h.34L40.495 129h-.341l.34-2.045h-.042a4.645 4.645 0 01-.82 1.177c-.32.33-.676.586-1.07.767a2.921 2.921 0 01-1.242.271zm0-.34c.58 0 1.112-.171 1.598-.512.487-.344.895-.809 1.225-1.395.334-.59.562-1.254.682-1.993.124-.738.124-1.401 0-1.986-.12-.59-.358-1.055-.714-1.396-.355-.345-.82-.517-1.395-.517-.575 0-1.106.172-1.593.517-.486.341-.898.806-1.236 1.396a5.978 5.978 0 00-.687 1.986c-.12.739-.12 1.403 0 1.993.124.586.364 1.051.72 1.395.354.341.821.512 1.4.512zm9.37.34c-.717 0-1.312-.186-1.784-.559-.473-.373-.803-.879-.991-1.518-.188-.639-.215-1.36-.08-2.163a5.842 5.842 0 01.804-2.162 4.86 4.86 0 011.46-1.518 3.287 3.287 0 011.827-.56c.475 0 .898.103 1.267.309.373.203.68.483.922.842.245.355.414.767.506 1.236.092.465.096.962.01 1.491l-.063.341h-6.563l.064-.341h6.222c.106-.653.073-1.246-.101-1.779-.17-.536-.453-.962-.847-1.278-.391-.32-.863-.48-1.417-.48-.561 0-1.101.167-1.62.501a4.553 4.553 0 00-1.342 1.364 5.287 5.287 0 00-.767 1.949l-.021.021c-.121.718-.109 1.377.037 1.977.146.6.426 1.081.842 1.443.415.362.967.544 1.656.544.497 0 .934-.089 1.31-.267a3.74 3.74 0 00.949-.612 5.04 5.04 0 00.575-.592l.234.192a4.578 4.578 0 01-.644.687 3.98 3.98 0 01-1.033.655c-.409.185-.88.277-1.412.277zm5.61-.17l1.364-8.182h.34l-.212 1.3h.042a2.767 2.767 0 011.108-1.023 3.334 3.334 0 011.577-.383h.171l-.064.341h-.171a2.912 2.912 0 00-2.37 1.182 2.88 2.88 0 00-.528 1.268L52.641 129h-.34zm18.664-5.455c-.181 1.112-.531 2.089-1.05 2.93-.518.842-1.156 1.499-1.912 1.971a4.584 4.584 0 01-2.471.703c-.913 0-1.67-.236-2.27-.708-.596-.473-1.012-1.13-1.246-1.971-.234-.842-.263-1.817-.085-2.925.188-1.111.541-2.088 1.06-2.929.522-.842 1.16-1.497 1.917-1.966a4.59 4.59 0 012.477-.708c.891 0 1.637.234 2.237.703.604.469 1.027 1.124 1.268 1.965.242.839.267 1.817.075 2.935zm-.341 0c.177-1.058.161-1.981-.048-2.769-.21-.789-.586-1.401-1.13-1.838-.54-.437-1.22-.655-2.04-.655a4.32 4.32 0 00-2.317.66c-.71.441-1.312 1.057-1.805 1.849-.49.788-.828 1.706-1.013 2.753-.174 1.055-.158 1.977.048 2.765.206.788.581 1.403 1.124 1.843.547.437 1.236.655 2.067.655.845 0 1.623-.222 2.333-.666.714-.443 1.314-1.06 1.8-1.848.49-.792.817-1.708.98-2.749zm6.156-2.727l-.064.341h-3.238l.063-.341h3.24zM73.306 129l1.577-9.524a2.184 2.184 0 011.214-1.646c.313-.153.64-.229.98-.229a2.137 2.137 0 01.618.106l-.149.32a10.532 10.532 0 00-.25-.059 1.393 1.393 0 00-.283-.026c-.404 0-.786.136-1.145.41-.355.27-.57.644-.644 1.124L73.636 129h-.33zm8.162 0l.064-.341 8.075-10.227H83.28l.043-.341h6.775l-.042.341-8.097 10.227h6.435l-.064.341h-6.861zm12.448.17c-.717 0-1.312-.186-1.784-.559-.472-.373-.803-.879-.99-1.518-.189-.639-.216-1.36-.08-2.163a5.844 5.844 0 01.804-2.162 4.86 4.86 0 011.46-1.518 3.286 3.286 0 011.826-.56c.476 0 .899.103 1.268.309.373.203.68.483.921.842.246.355.414.767.507 1.236.092.465.095.962.01 1.491l-.064.341h-6.562l.064-.341h6.221c.107-.653.073-1.246-.1-1.779-.171-.536-.454-.962-.848-1.278-.39-.32-.863-.48-1.417-.48-.56 0-1.1.167-1.62.501a4.553 4.553 0 00-1.341 1.364 5.287 5.287 0 00-.767 1.949l-.022.021c-.12.718-.108 1.377.037 1.977.146.6.427 1.081.842 1.443.416.362.968.544 1.657.544.497 0 .934-.089 1.31-.267.38-.177.696-.382.948-.612.256-.231.448-.428.576-.592l.234.192c-.15.206-.364.435-.645.687a3.98 3.98 0 01-1.033.655c-.408.185-.879.277-1.412.277zm6.868-5.667L99.868 129h-.341l1.363-8.182h.341l-.213 1.3h.043a2.769 2.769 0 011.108-1.023 3.333 3.333 0 011.577-.383c.546 0 1.01.119 1.39.357.38.237.653.566.82.985.167.419.204.902.112 1.449l-.916 5.497h-.341l.916-5.497c.117-.725-.007-1.314-.373-1.769-.362-.454-.905-.681-1.63-.681-.483 0-.934.104-1.353.314a3.027 3.027 0 00-1.049.868c-.281.369-.46.792-.538 1.268zm9.91 5.667c-.646 0-1.175-.184-1.587-.554-.412-.372-.694-.878-.847-1.518-.149-.639-.158-1.361-.027-2.168a6.496 6.496 0 01.751-2.162c.366-.639.815-1.145 1.348-1.518a3.014 3.014 0 011.758-.56c.437 0 .822.091 1.156.272.337.178.612.433.825.767.217.33.359.723.427 1.177h.042l.799-4.815h.341L113.869 129h-.341l.341-2.045h-.043a4.632 4.632 0 01-.82 1.177 3.54 3.54 0 01-1.071.767c-.39.181-.804.271-1.241.271zm0-.34c.579 0 1.112-.171 1.598-.512.487-.344.895-.809 1.225-1.395.334-.59.561-1.254.682-1.993.125-.738.125-1.401 0-1.986-.121-.59-.358-1.055-.714-1.396-.355-.345-.82-.517-1.395-.517-.575 0-1.106.172-1.593.517-.486.341-.898.806-1.236 1.396a6.012 6.012 0 00-.687 1.986c-.121.739-.121 1.403 0 1.993.125.586.364 1.051.719 1.395.355.341.822.512 1.401.512zm6.323.17l1.364-8.182h.341l-.213 1.3h.042a2.769 2.769 0 011.108-1.023 3.336 3.336 0 011.577-.383h.17l-.064.341h-.17c-.483 0-.931.104-1.342.314a2.883 2.883 0 00-1.556 2.136l-.916 5.497h-.341zm7.527.17c-.647 0-1.197-.186-1.652-.559-.451-.373-.774-.882-.969-1.529-.192-.646-.22-1.377-.085-2.194a5.797 5.797 0 01.799-2.142c.401-.635.884-1.136 1.449-1.502.568-.369 1.168-.554 1.8-.554.653 0 1.206.189 1.657.565.454.376.777.888.969 1.534.195.646.229 1.374.101 2.184a5.802 5.802 0 01-.804 2.147 4.874 4.874 0 01-1.454 1.502 3.286 3.286 0 01-1.811.548zm0-.34c.589 0 1.145-.171 1.667-.512.522-.344.966-.813 1.332-1.406a5.495 5.495 0 00.729-2.024c.121-.732.098-1.389-.069-1.971-.167-.582-.449-1.042-.847-1.38-.398-.337-.881-.506-1.449-.506-.582 0-1.134.174-1.656.522-.522.345-.968.815-1.337 1.412a5.356 5.356 0 00-.735 2.008c-.128.732-.109 1.389.058 1.971.171.582.455 1.042.852 1.38.402.337.886.506 1.455.506zm5.288 3.238l1.875-11.25h.341l-.341 2.088h.042c.221-.454.489-.847.805-1.177a3.42 3.42 0 011.07-.767 3.002 3.002 0 011.257-.272c.647 0 1.174.185 1.583.554.411.37.692.874.841 1.513.153.639.162 1.364.027 2.173a6.39 6.39 0 01-.757 2.163c-.365.639-.815 1.145-1.347 1.518a2.975 2.975 0 01-1.753.559c-.433 0-.818-.088-1.156-.266a2.221 2.221 0 01-.825-.767 3.048 3.048 0 01-.426-1.182h-.043l-.852 5.113h-.341zm1.534-7.138c-.121.739-.121 1.403 0 1.993.121.586.359 1.051.714 1.395.355.341.82.512 1.395.512.576 0 1.106-.171 1.593-.512.486-.344.898-.809 1.236-1.395.337-.59.566-1.254.687-1.993.121-.738.121-1.401 0-1.986-.121-.59-.357-1.055-.709-1.396-.351-.345-.818-.517-1.401-.517-.575 0-1.107.172-1.598.517-.49.341-.902.806-1.235 1.396a5.895 5.895 0 00-.682 1.986z" fill="#272727"/>
</svg>
