<svg xmlns="http://www.w3.org/2000/svg" fill="none" viewBox="0 0 21 31">
  <g clip-path="url(#lyuKIkPTra)">
    <path d="M18.61 18.405H2.394a1.084 1.084 0 01-1.082-1.081c0-.595.487-1.081 1.082-1.081H18.61c.594 0 1.08.486 1.08 1.08 0 .595-.486 1.082-1.08 1.082zm0-6.217H2.394a1.084 1.084 0 01-1.082-1.08c0-.595.487-1.082 1.082-1.082H18.61c.594 0 1.08.487 1.08 1.081 0 .595-.486 1.082-1.08 1.082zm0 12.433H2.394a1.084 1.084 0 01-1.082-1.081c0-.595.487-1.081 1.082-1.081H18.61c.594 0 1.08.486 1.08 1.08 0 .595-.486 1.082-1.08 1.082z" fill="#3D4246"/>
  </g>
  <defs>
    <clipPath id="lyuKIkPTra">
      <path fill="#fff" transform="translate(.5 .702)" d="M0 0h20v30H0z"/>
    </clipPath>
  </defs>
</svg>
