<svg xmlns="http://www.w3.org/2000/svg" version="1.1" viewBox="0 0 157 30">
  <defs>
    <linearGradient x1="50%" y1="61.893%" x2="-2.578%" y2="-8.14%" id="QMT03AXTTa">
      <stop stop-color="#8472ED" offset="0%"/>
      <stop stop-color="#B786F6" offset="100%"/>
    </linearGradient>
  </defs>
  <g fill-rule="nonzero" stroke="none" stroke-width="1" fill="none">
    <path d="M52.18 24.093v-4.712h-6.699l6.7-11.95V3.088H38.923V7.8h7.238l-7.238 12.773v3.52H52.18zm9.651.511c1.618 0 3.18-.482 4.485-1.42 1.335-.908 2.442-2.27 3.208-4.03h-4.826c-.652.823-1.419 1.476-2.867 1.476-1.845 0-3.406-1.107-3.69-2.98H69.95c.057-.37.113-.625.113-1.25 0-4.797-3.52-8.6-8.317-8.6-4.797 0-8.26 4.059-8.26 8.459 0 4.683 3.832 8.345 8.345 8.345zm3.52-10.134h-7.153c.199-.936 1.136-2.696 3.577-2.696 2.44 0 3.378 1.76 3.576 2.696zm12.036 9.623v-8.572c0-.966 0-3.293 2.697-3.293 2.315 0 2.46 1.896 2.469 3.045v8.82h4.712v-9.85c0-3.094-.965-4.343-1.816-5.08-.852-.739-2.527-1.363-4.031-1.363-2.81 0-3.804 1.447-4.286 2.214h-.057V8.339h-4.4v15.754h4.712zm20.381.511c3.18 0 4.315-1.561 4.712-2.214h.057v1.703h4.485V3.088h-4.712v6.585c-.511-.51-1.845-1.873-4.627-1.873-4.002 0-7.806 3.037-7.806 8.373 0 4.74 3.122 8.431 7.891 8.431zm.767-4.4c-2.215 0-3.946-1.618-3.946-4.059 0-1.817 1.277-3.946 4.002-3.946 2.612 0 3.974 2.044 3.974 3.946 0 1.646-1.078 4.06-4.03 4.06zm16.577 3.89v-8.659c0-2.384 1.533-2.838 3.719-2.895V7.8c-2.726 0-3.549 1.447-3.946 2.214h-.057V8.339H110.4v15.754h4.712zm13.37.482c5.734 0 8.487-4.514 8.487-8.374 0-3.86-2.753-8.374-8.487-8.374s-8.488 4.513-8.488 8.374c0 3.86 2.754 8.374 8.488 8.374zm0-4.4c-2.044 0-3.776-1.675-3.776-3.974 0-2.3 1.732-3.974 3.776-3.974 2.044 0 3.775 1.675 3.775 3.974 0 2.3-1.731 3.974-3.775 3.974zm15.867 9.169v-6.671c.568.596 1.902 1.959 4.741 1.959 4.485 0 7.664-3.72 7.664-8.26 0-3.663-2.1-8.573-7.692-8.573-2.413 0-3.974 1.078-4.911 2.27h-.085V8.34h-4.429v21.006h4.712zm3.747-9.112c-2.47 0-3.945-2.016-3.945-4.003 0-1.873 1.362-4.03 3.945-4.03 2.584 0 3.946 2.157 3.946 4.03 0 1.987-1.476 4.003-3.946 4.003z" fill="#212240"/>
    <path d="M19.518.02c2.442.028 4.287 1.322 4.988 3.602.55 1.788.196 3.469-1.009 4.936-4.049 4.925-8.096 9.85-12.147 14.774-.743.903-1.486 1.806-2.251 2.688-1.88 2.167-5.056 2.51-7.148.787-2.266-1.867-2.614-5.023-.75-7.332 2.269-2.81 4.586-5.582 6.873-8.378.138-.168.194-.402.29-.606-.238-.074-.474-.202-.714-.213-.823-.039-1.648-.072-2.47-.043C2.38 10.33.046 8.128.015 5.203-.014 2.305 2.186.083 5.163.024c2.419-.048 4.838-.01 7.257-.01 2.366 0 4.733-.02 7.098.007z" fill="url(#QMT03AXTTa)"/>
    <path d="M16.75 23.594c.057-.79.297-1.511.793-2.127 1.402-1.743 2.273-2.83 3.745-4.445.543-.596.972-.308 1.162.154.862 2.096 1.333 3.369 2.09 5.526.863 2.455-1.053 5.119-3.653 5.176-.25.005-.499-.01-.748-.014a4.003 4.003 0 01-3.39-4.27z" fill="#8472ED" opacity=".5"/>
  </g>
</svg>
